<svg width="48" height="48" viewBox="0 0 48 48" fill="none" xmlns="http://www.w3.org/2000/svg">
  <!-- Genie Lamp with Sparkle - Compact Icon Version -->
  
  <!-- Lamp Base -->
  <path d="M24 38C29.5228 38 34 33.5228 34 28C34 22.4772 29.5228 18 24 18C18.4772 18 14 22.4772 14 28C14 33.5228 18.4772 38 24 38Z" fill="url(#gradient1)"/>
  
  <!-- Lamp Top -->
  <path d="M24 18C26.5 13 26.5 8 24 4C21.5 8 21.5 13 24 18Z" fill="url(#gradient2)"/>
  
  <!-- Sparkle Effects -->
  <path d="M36 12L38.5 14.5L36 17L33.5 14.5L36 12Z" fill="#00B14F"/>
  <path d="M32 6L33.5 7.5L32 9L30.5 7.5L32 6Z" fill="#4F46E5"/>
  <circle cx="12" cy="16" r="1.5" fill="#00B14F" opacity="0.6"/>
  <circle cx="38" cy="32" r="1.5" fill="#7C3AED" opacity="0.6"/>
  
  <!-- Bar Chart Integration -->
  <g opacity="0.9">
    <rect x="19" y="26" width="3" height="8" rx="1.5" fill="white"/>
    <rect x="23" y="22" width="3" height="12" rx="1.5" fill="white"/>
    <rect x="27" y="24" width="3" height="10" rx="1.5" fill="white"/>
  </g>
  
  <!-- Gradients -->
  <defs>
    <linearGradient id="gradient1" x1="14" y1="18" x2="34" y2="38" gradientUnits="userSpaceOnUse">
      <stop offset="0%" stop-color="#4F46E5"/>
      <stop offset="50%" stop-color="#6366F1"/>
      <stop offset="100%" stop-color="#7C3AED"/>
    </linearGradient>
    <linearGradient id="gradient2" x1="21.5" y1="4" x2="26.5" y2="18" gradientUnits="userSpaceOnUse">
      <stop offset="0%" stop-color="#00B14F"/>
      <stop offset="50%" stop-color="#10B981"/>
      <stop offset="100%" stop-color="#4F46E5"/>
    </linearGradient>
  </defs>
</svg>

