<svg width="200" height="48" viewBox="0 0 200 48" fill="none" xmlns="http://www.w3.org/2000/svg">
  <!-- Genie Lamp with Sparkle -->
  <g id="logo-icon">
    <!-- Lamp Base -->
    <path d="M24 36C28.4183 36 32 32.4183 32 28C32 23.5817 28.4183 20 24 20C19.5817 20 16 23.5817 16 28C16 32.4183 19.5817 36 24 36Z" fill="url(#gradient1)"/>
    <!-- Lamp Top -->
    <path d="M24 20C26 16 26 12 24 8C22 12 22 16 24 20Z" fill="url(#gradient2)"/>
    <!-- Sparkle 1 -->
    <path d="M34 14L36 16L34 18L32 16L34 14Z" fill="#00B14F"/>
    <!-- Sparkle 2 -->
    <path d="M30 8L31.5 9.5L30 11L28.5 9.5L30 8Z" fill="#4F46E5"/>
    <!-- Bar Chart Integration -->
    <rect x="18" y="26" width="3" height="6" rx="1" fill="white" opacity="0.8"/>
    <rect x="22" y="23" width="3" height="9" rx="1" fill="white" opacity="0.9"/>
    <rect x="26" y="25" width="3" height="7" rx="1" fill="white" opacity="0.8"/>
  </g>
  
  <!-- Text: ShopifyGenie -->
  <text x="44" y="26" font-family="Inter, system-ui, sans-serif" font-size="16" font-weight="700" fill="#1E293B">
    ShopifyGenie
  </text>
  <text x="44" y="38" font-family="Inter, system-ui, sans-serif" font-size="9" font-weight="500" fill="#64748B" letter-spacing="0.5">
    ACCOUNTING SUITE PRO
  </text>
  
  <!-- Gradients -->
  <defs>
    <linearGradient id="gradient1" x1="16" y1="20" x2="32" y2="36" gradientUnits="userSpaceOnUse">
      <stop offset="0%" stop-color="#4F46E5"/>
      <stop offset="100%" stop-color="#7C3AED"/>
    </linearGradient>
    <linearGradient id="gradient2" x1="22" y1="8" x2="26" y2="20" gradientUnits="userSpaceOnUse">
      <stop offset="0%" stop-color="#00B14F"/>
      <stop offset="100%" stop-color="#4F46E5"/>
    </linearGradient>
  </defs>
</svg>

